<?xml version="1.0" encoding="utf-8"?>
<!-- Generator: Adobe Illustrator 17.0.0, SVG Export Plug-In . SVG Version: 6.00 Build 0)  -->
<!DOCTYPE svg PUBLIC "-//W3C//DTD SVG 1.1//EN" "http://www.w3.org/Graphics/SVG/1.1/DTD/svg11.dtd">
<svg version="1.1" id="Capa_1" xmlns="http://www.w3.org/2000/svg" xmlns:xlink="http://www.w3.org/1999/xlink" x="0px" y="0px"
	 width="595.28px" height="841.89px" viewBox="0 0 595.28 841.89" enable-background="new 0 0 595.28 841.89" xml:space="preserve">
<g>
	<g>
		<path fill="#FFFA4B" d="M520.87,123.305H74.41c-41.037,0-74.41,33.373-74.41,74.41v446.46c0,41.037,33.373,74.41,74.41,74.41
			h223.23V513.958h-74.41v-93.013h74.41v-74.41c0-61.649,49.966-111.615,111.615-111.615h74.41v93.012H446.46
			c-20.537,0-37.205-1.935-37.205,18.603v74.41h93.012l-37.205,93.013h-55.807v204.628H520.87c41.037,0,74.41-33.373,74.41-74.41
			v-446.46C595.28,156.678,561.907,123.305,520.87,123.305z"/>
	</g>
</g>
</svg>
