<?xml version="1.0" encoding="utf-8"?>
<!-- Generator: Adobe Illustrator 17.0.0, SVG Export Plug-In . SVG Version: 6.00 Build 0)  -->
<!DOCTYPE svg PUBLIC "-//W3C//DTD SVG 1.1//EN" "http://www.w3.org/Graphics/SVG/1.1/DTD/svg11.dtd">
<svg version="1.1" id="Capa_1" xmlns="http://www.w3.org/2000/svg" xmlns:xlink="http://www.w3.org/1999/xlink" x="0px" y="0px"
	 width="595.28px" height="841.89px" viewBox="0 0 595.28 841.89" enable-background="new 0 0 595.28 841.89" xml:space="preserve">
<g>
	<polygon fill="#FFFA4B" points="520.87,383.74 520.87,309.33 483.665,309.33 483.665,383.74 409.255,383.74 409.255,420.945 
		483.665,420.945 483.665,495.355 520.87,495.355 520.87,420.945 595.28,420.945 595.28,383.74 	"/>
</g>
<g>
	<path fill="#FFFA4B" d="M186.025,383.74v74.41h105.253c-15.366,43.307-56.738,74.41-105.253,74.41
		c-61.537,0-111.615-50.078-111.615-111.615S124.488,309.33,186.025,309.33c26.676,0,52.347,9.562,72.289,26.936l48.887-56.105
		c-33.484-29.169-76.493-45.241-121.177-45.241C83.451,234.92,0,318.371,0,420.945S83.451,606.97,186.025,606.97
		S372.05,523.519,372.05,420.945V383.74H186.025z"/>
</g>
</svg>
