<?xml version="1.0" encoding="utf-8"?>
<!-- Generator: Adobe Illustrator 17.0.0, SVG Export Plug-In . SVG Version: 6.00 Build 0)  -->
<!DOCTYPE svg PUBLIC "-//W3C//DTD SVG 1.1//EN" "http://www.w3.org/Graphics/SVG/1.1/DTD/svg11.dtd">
<svg version="1.1" id="Capa_1" xmlns="http://www.w3.org/2000/svg" xmlns:xlink="http://www.w3.org/1999/xlink" x="0px" y="0px"
	 width="595.28px" height="841.89px" viewBox="0 0 595.28 841.89" enable-background="new 0 0 595.28 841.89" xml:space="preserve">
<g>
	<g>
		<path fill="#FFFA4B" d="M409.255,123.305h-223.23C83.302,123.305,0,206.607,0,309.33v223.23
			c0,102.723,83.302,186.025,186.025,186.025h223.23c102.723,0,186.025-83.302,186.025-186.025V309.33
			C595.28,206.607,511.978,123.305,409.255,123.305z M539.473,532.56c0,71.806-58.412,130.218-130.217,130.218h-223.23
			c-71.806,0-130.217-58.412-130.217-130.218V309.33c0-71.806,58.412-130.218,130.217-130.218h223.23
			c71.806,0,130.217,58.412,130.217,130.218V532.56z"/>
	</g>
</g>
<g>
	<g>
		<path fill="#FFFA4B" d="M297.64,272.125c-82.186,0-148.82,66.634-148.82,148.82s66.634,148.82,148.82,148.82
			s148.82-66.634,148.82-148.82S379.826,272.125,297.64,272.125z M297.64,513.958c-51.269,0-93.012-41.744-93.012-93.013
			c0-51.306,41.744-93.013,93.012-93.013s93.013,41.707,93.013,93.013C390.653,472.214,348.909,513.958,297.64,513.958z"/>
	</g>
</g>
<g>
	<g>
		<circle fill="#FFFA4B" cx="457.622" cy="260.964" r="19.83"/>
	</g>
</g>
</svg>
