<?xml version="1.0" encoding="utf-8"?>
<!-- Generator: Adobe Illustrator 17.0.0, SVG Export Plug-In . SVG Version: 6.00 Build 0)  -->
<!DOCTYPE svg PUBLIC "-//W3C//DTD SVG 1.1//EN" "http://www.w3.org/Graphics/SVG/1.1/DTD/svg11.dtd">
<svg version="1.1" id="Capa_1" xmlns="http://www.w3.org/2000/svg" xmlns:xlink="http://www.w3.org/1999/xlink" x="0px" y="0px"
	 width="595.28px" height="841.89px" viewBox="0 0 595.28 841.89" enable-background="new 0 0 595.28 841.89" xml:space="preserve">
<g>
	<g>
		<path fill="#FFFA4B" d="M569.981,255.755c-16.147-28.722-33.67-34.005-69.35-36.014c-35.642-2.418-125.269-3.423-202.916-3.423
			c-77.796,0-167.46,1.005-203.065,3.386c-35.605,2.046-53.166,7.292-69.462,36.052C8.557,284.44,0,333.848,0,420.833
			c0,0.074,0,0.112,0,0.112c0,0.074,0,0.112,0,0.112v0.074c0,86.613,8.557,136.393,25.188,164.781
			c16.296,28.722,33.819,33.931,69.425,36.349c35.642,2.083,125.306,3.311,203.102,3.311c77.647,0,167.274-1.228,202.953-3.274
			c35.68-2.418,53.203-7.627,69.35-36.349c16.779-28.387,25.262-78.168,25.262-164.781c0,0,0-0.112,0-0.186c0,0,0-0.074,0-0.112
			C595.28,333.848,586.797,284.44,569.981,255.755z M223.23,532.56V309.33l186.025,111.615L223.23,532.56z"/>
	</g>
</g>
</svg>
